<mxfile modified="2021-01-18T06:31:14.594Z" host="app.diagrams.net" agent="5.0 (Windows NT 10.0; Win64; x64) AppleWebKit/537.36 (KHTML, like Gecko) Chrome/89.0.4385.0 Safari/537.36" etag="lZP8COD62o31Gm0eilU5" version="14.2.4" type="github">
  <diagram id="f106602c-feb2-e66a-4537-3a34d633f6aa" name="Page-1">
    <mxGraphModel dx="782" dy="437" grid="1" gridSize="10" guides="1" tooltips="1" connect="1" arrows="1" fold="1" page="1" pageScale="1" pageWidth="1169" pageHeight="827" background="#ffffff" math="0" shadow="0">
      <root>
        <mxCell id="0" />
        <mxCell id="1" parent="0" />
        <mxCell id="14" value="计算节点" style="fillColor=#F6F6F6;strokeColor=none;shadow=0;gradientColor=none;fontSize=14;align=left;spacing=10;fontColor=#717171;9E9E9E;verticalAlign=top;spacingTop=-4;fontStyle=0;spacingLeft=40;html=1;" parent="1" vertex="1">
          <mxGeometry x="630" y="100" width="670" height="590" as="geometry" />
        </mxCell>
        <mxCell id="2" value="现存组件调用关系图" style="fillColor=#4DA1F5;strokeColor=none;shadow=1;gradientColor=none;fontSize=14;align=left;spacingLeft=50;fontColor=#ffffff;html=1;" parent="1" vertex="1">
          <mxGeometry x="34.5" y="40" width="1100" height="40" as="geometry" />
        </mxCell>
        <mxCell id="391" value="k8s master 节点" style="rounded=1;absoluteArcSize=1;arcSize=2;html=1;strokeColor=none;gradientColor=none;shadow=0;dashed=0;strokeColor=none;fontSize=12;fontColor=#9E9E9E;align=left;verticalAlign=top;spacing=10;spacingTop=-4;fillColor=#EFEBE9;whiteSpace=wrap;" parent="1" vertex="1">
          <mxGeometry x="59" y="100" width="451" height="590" as="geometry" />
        </mxCell>
        <mxCell id="409" style="edgeStyle=orthogonalEdgeStyle;rounded=0;elbow=vertical;html=1;startArrow=blockThin;startFill=1;endArrow=blockThin;endFill=1;jettySize=auto;orthogonalLoop=1;strokeWidth=2;fontSize=10;fontColor=#999999;dashed=0;strokeColor=#4284F3;labelBackgroundColor=none;endSize=4;startSize=4;exitX=0.472;exitY=0.025;exitDx=0;exitDy=0;exitPerimeter=0;" parent="1" source="xjTbjc3EWIIlP0C5Vz4T-418" edge="1">
          <mxGeometry relative="1" as="geometry">
            <Array as="points">
              <mxPoint x="280" y="522" />
              <mxPoint x="280" y="362" />
            </Array>
            <mxPoint x="240" y="443" as="sourcePoint" />
            <mxPoint x="340" y="362" as="targetPoint" />
          </mxGeometry>
        </mxCell>
        <mxCell id="411" value="k8s 集群网络" style="edgeStyle=elbowEdgeStyle;rounded=0;elbow=vertical;html=1;startArrow=blockThin;startFill=1;endArrow=blockThin;endFill=1;jettySize=auto;orthogonalLoop=1;strokeWidth=2;fontSize=12;fontColor=#999999;dashed=0;strokeColor=#9E9E9E;labelBackgroundColor=#ffffff;endSize=4;startSize=4;verticalAlign=bottom;exitX=1.004;exitY=0.445;exitDx=0;exitDy=0;exitPerimeter=0;" parent="1" source="391" edge="1">
          <mxGeometry y="22" relative="1" as="geometry">
            <mxPoint as="offset" />
            <mxPoint x="530" y="363" as="sourcePoint" />
            <mxPoint x="630" y="363" as="targetPoint" />
          </mxGeometry>
        </mxCell>
        <mxCell id="413" style="edgeStyle=orthogonalEdgeStyle;rounded=0;elbow=vertical;html=1;startArrow=none;startFill=1;endArrow=blockThin;endFill=1;jettySize=auto;orthogonalLoop=1;strokeWidth=2;fontSize=10;fontColor=#999999;dashed=0;strokeColor=#4284F3;labelBackgroundColor=none;endSize=4;startSize=4;" parent="1" edge="1">
          <mxGeometry relative="1" as="geometry">
            <Array as="points">
              <mxPoint x="770" y="360" />
              <mxPoint x="770" y="460" />
            </Array>
            <mxPoint x="810" y="360" as="sourcePoint" />
            <mxPoint x="885" y="460" as="targetPoint" />
          </mxGeometry>
        </mxCell>
        <mxCell id="xjTbjc3EWIIlP0C5Vz4T-414" value="" style="strokeColor=#dddddd;shadow=1;strokeWidth=1;rounded=1;absoluteArcSize=1;arcSize=2;" vertex="1" parent="1">
          <mxGeometry x="340" y="330" width="150" height="60" as="geometry" />
        </mxCell>
        <mxCell id="xjTbjc3EWIIlP0C5Vz4T-415" value="&lt;font color=&quot;#000000&quot;&gt;Kubelet&lt;/font&gt;&lt;br&gt;" style="dashed=0;connectable=0;html=1;fillColor=#5184F3;strokeColor=none;shape=mxgraph.gcp2.hexIcon;prIcon=cloud_functions;part=1;labelPosition=right;verticalLabelPosition=middle;align=left;verticalAlign=middle;spacingLeft=5;fontColor=#999999;fontSize=12;" vertex="1" parent="xjTbjc3EWIIlP0C5Vz4T-414">
          <mxGeometry y="0.5" width="44" height="39" relative="1" as="geometry">
            <mxPoint x="5" y="-19.5" as="offset" />
          </mxGeometry>
        </mxCell>
        <mxCell id="xjTbjc3EWIIlP0C5Vz4T-418" value="" style="strokeColor=#dddddd;shadow=1;strokeWidth=1;rounded=1;absoluteArcSize=1;arcSize=2;" vertex="1" parent="1">
          <mxGeometry x="169.5" y="540" width="230" height="80" as="geometry" />
        </mxCell>
        <mxCell id="xjTbjc3EWIIlP0C5Vz4T-419" value="&lt;font color=&quot;#000000&quot;&gt;kubevirt-controller-manager&lt;/font&gt;&lt;br&gt;物理机高可用监控" style="dashed=0;connectable=0;html=1;fillColor=#5184F3;strokeColor=none;shape=mxgraph.gcp2.hexIcon;prIcon=compute_engine;part=1;labelPosition=right;verticalLabelPosition=middle;align=left;verticalAlign=middle;spacingLeft=5;fontColor=#999999;fontSize=12;" vertex="1" parent="xjTbjc3EWIIlP0C5Vz4T-418">
          <mxGeometry y="0.5" width="44" height="39" relative="1" as="geometry">
            <mxPoint x="5" y="-19.5" as="offset" />
          </mxGeometry>
        </mxCell>
        <mxCell id="xjTbjc3EWIIlP0C5Vz4T-423" value="" style="strokeColor=#dddddd;shadow=1;strokeWidth=1;rounded=1;absoluteArcSize=1;arcSize=2;" vertex="1" parent="1">
          <mxGeometry x="80" y="240" width="160" height="60" as="geometry" />
        </mxCell>
        <mxCell id="xjTbjc3EWIIlP0C5Vz4T-424" value="&lt;font color=&quot;#000000&quot;&gt;Promethueus&lt;/font&gt;&lt;br&gt;收集监控数据" style="dashed=0;connectable=0;html=1;fillColor=#5184F3;strokeColor=none;shape=mxgraph.gcp2.hexIcon;prIcon=compute_engine;part=1;labelPosition=right;verticalLabelPosition=middle;align=left;verticalAlign=middle;spacingLeft=5;fontColor=#999999;fontSize=12;" vertex="1" parent="xjTbjc3EWIIlP0C5Vz4T-423">
          <mxGeometry y="0.5" width="44" height="39" relative="1" as="geometry">
            <mxPoint x="5" y="-19.5" as="offset" />
          </mxGeometry>
        </mxCell>
        <mxCell id="xjTbjc3EWIIlP0C5Vz4T-426" value="" style="edgeStyle=orthogonalEdgeStyle;fontSize=12;html=1;endArrow=blockThin;endFill=1;rounded=0;strokeWidth=2;endSize=4;startSize=4;dashed=0;strokeColor=#4284F3;entryX=1;entryY=0.5;entryDx=0;entryDy=0;" edge="1" parent="1" target="xjTbjc3EWIIlP0C5Vz4T-423">
          <mxGeometry width="100" relative="1" as="geometry">
            <mxPoint x="280" y="360" as="sourcePoint" />
            <mxPoint x="400" y="300" as="targetPoint" />
            <Array as="points">
              <mxPoint x="280" y="270" />
            </Array>
          </mxGeometry>
        </mxCell>
        <mxCell id="xjTbjc3EWIIlP0C5Vz4T-429" value="" style="strokeColor=#dddddd;shadow=1;strokeWidth=1;rounded=1;absoluteArcSize=1;arcSize=2;" vertex="1" parent="1">
          <mxGeometry x="660" y="330" width="150" height="60" as="geometry" />
        </mxCell>
        <mxCell id="xjTbjc3EWIIlP0C5Vz4T-430" value="&lt;font color=&quot;#000000&quot;&gt;Kubelet&lt;/font&gt;&lt;br&gt;" style="dashed=0;connectable=0;html=1;fillColor=#5184F3;strokeColor=none;shape=mxgraph.gcp2.hexIcon;prIcon=cloud_functions;part=1;labelPosition=right;verticalLabelPosition=middle;align=left;verticalAlign=middle;spacingLeft=5;fontColor=#999999;fontSize=12;" vertex="1" parent="xjTbjc3EWIIlP0C5Vz4T-429">
          <mxGeometry y="0.5" width="44" height="39" relative="1" as="geometry">
            <mxPoint x="5" y="-19.5" as="offset" />
          </mxGeometry>
        </mxCell>
        <mxCell id="xjTbjc3EWIIlP0C5Vz4T-431" value="" style="strokeColor=#dddddd;shadow=1;strokeWidth=1;rounded=1;absoluteArcSize=1;arcSize=2;" vertex="1" parent="1">
          <mxGeometry x="885" y="430" width="195" height="60" as="geometry" />
        </mxCell>
        <mxCell id="xjTbjc3EWIIlP0C5Vz4T-432" value="&lt;font color=&quot;#000000&quot;&gt;virtctl&lt;/font&gt;&lt;br&gt;执行前端接口的命令调用" style="dashed=0;connectable=0;html=1;fillColor=#5184F3;strokeColor=none;shape=mxgraph.gcp2.hexIcon;prIcon=compute_engine;part=1;labelPosition=right;verticalLabelPosition=middle;align=left;verticalAlign=middle;spacingLeft=5;fontColor=#999999;fontSize=12;" vertex="1" parent="xjTbjc3EWIIlP0C5Vz4T-431">
          <mxGeometry y="0.5" width="44" height="39" relative="1" as="geometry">
            <mxPoint x="5" y="-19.5" as="offset" />
          </mxGeometry>
        </mxCell>
        <mxCell id="xjTbjc3EWIIlP0C5Vz4T-433" value="" style="strokeColor=#dddddd;shadow=1;strokeWidth=1;rounded=1;absoluteArcSize=1;arcSize=2;" vertex="1" parent="1">
          <mxGeometry x="885" y="510" width="275" height="60" as="geometry" />
        </mxCell>
        <mxCell id="xjTbjc3EWIIlP0C5Vz4T-434" value="&lt;font color=&quot;#000000&quot;&gt;virtlet&lt;/font&gt;&lt;br&gt;处理vm.开头物理机节点状态和高可用" style="dashed=0;connectable=0;html=1;fillColor=#5184F3;strokeColor=none;shape=mxgraph.gcp2.hexIcon;prIcon=compute_engine;part=1;labelPosition=right;verticalLabelPosition=middle;align=left;verticalAlign=middle;spacingLeft=5;fontColor=#999999;fontSize=12;" vertex="1" parent="xjTbjc3EWIIlP0C5Vz4T-433">
          <mxGeometry y="0.5" width="44" height="39" relative="1" as="geometry">
            <mxPoint x="5" y="-19.5" as="offset" />
          </mxGeometry>
        </mxCell>
        <mxCell id="xjTbjc3EWIIlP0C5Vz4T-435" value="" style="strokeColor=#dddddd;shadow=1;strokeWidth=1;rounded=1;absoluteArcSize=1;arcSize=2;" vertex="1" parent="1">
          <mxGeometry x="885" y="590" width="275" height="60" as="geometry" />
        </mxCell>
        <mxCell id="xjTbjc3EWIIlP0C5Vz4T-436" value="&lt;font color=&quot;#000000&quot;&gt;libvirtwatcher&lt;/font&gt;&lt;br&gt;监听libvirtd的信息获取虚机状态和配置" style="dashed=0;connectable=0;html=1;fillColor=#5184F3;strokeColor=none;shape=mxgraph.gcp2.hexIcon;prIcon=compute_engine;part=1;labelPosition=right;verticalLabelPosition=middle;align=left;verticalAlign=middle;spacingLeft=5;fontColor=#999999;fontSize=12;" vertex="1" parent="xjTbjc3EWIIlP0C5Vz4T-435">
          <mxGeometry y="0.5" width="44" height="39" relative="1" as="geometry">
            <mxPoint x="5" y="-19.5" as="offset" />
          </mxGeometry>
        </mxCell>
        <mxCell id="xjTbjc3EWIIlP0C5Vz4T-437" value="" style="strokeColor=#dddddd;shadow=1;strokeWidth=1;rounded=1;absoluteArcSize=1;arcSize=2;" vertex="1" parent="1">
          <mxGeometry x="1080" y="300" width="180" height="70" as="geometry" />
        </mxCell>
        <mxCell id="xjTbjc3EWIIlP0C5Vz4T-438" value="&lt;font color=&quot;#000000&quot;&gt;kubesds.service&lt;/font&gt;&lt;br&gt;处理grpc的接口调用&lt;br&gt;主要是存储相关的接口&lt;br&gt;不能在docker内执行" style="dashed=0;connectable=0;html=1;fillColor=#5184F3;strokeColor=none;shape=mxgraph.gcp2.hexIcon;prIcon=compute_engine;part=1;labelPosition=right;verticalLabelPosition=middle;align=left;verticalAlign=middle;spacingLeft=5;fontColor=#999999;fontSize=12;" vertex="1" parent="xjTbjc3EWIIlP0C5Vz4T-437">
          <mxGeometry y="0.5" width="44" height="39" relative="1" as="geometry">
            <mxPoint x="5" y="-19.5" as="offset" />
          </mxGeometry>
        </mxCell>
        <mxCell id="xjTbjc3EWIIlP0C5Vz4T-439" value="" style="strokeColor=#dddddd;shadow=1;strokeWidth=1;rounded=1;absoluteArcSize=1;arcSize=2;" vertex="1" parent="1">
          <mxGeometry x="902.5" y="210" width="227.5" height="60" as="geometry" />
        </mxCell>
        <mxCell id="xjTbjc3EWIIlP0C5Vz4T-440" value="&lt;font color=&quot;#000000&quot;&gt;kubevmm-monitor.service&lt;/font&gt;&lt;br&gt;物理机/虚机监控数据获取服务" style="dashed=0;connectable=0;html=1;fillColor=#5184F3;strokeColor=none;shape=mxgraph.gcp2.hexIcon;prIcon=compute_engine;part=1;labelPosition=right;verticalLabelPosition=middle;align=left;verticalAlign=middle;spacingLeft=5;fontColor=#999999;fontSize=12;" vertex="1" parent="xjTbjc3EWIIlP0C5Vz4T-439">
          <mxGeometry y="0.5" width="44" height="39" relative="1" as="geometry">
            <mxPoint x="5" y="-19.5" as="offset" />
          </mxGeometry>
        </mxCell>
        <mxCell id="xjTbjc3EWIIlP0C5Vz4T-441" value="" style="edgeStyle=orthogonalEdgeStyle;fontSize=12;html=1;endArrow=blockThin;endFill=1;rounded=0;strokeWidth=2;endSize=4;startSize=4;dashed=0;strokeColor=#4284F3;exitX=0.5;exitY=0;exitDx=0;exitDy=0;entryX=0;entryY=0.5;entryDx=0;entryDy=0;" edge="1" parent="1" source="xjTbjc3EWIIlP0C5Vz4T-431" target="xjTbjc3EWIIlP0C5Vz4T-437">
          <mxGeometry width="100" relative="1" as="geometry">
            <mxPoint x="1040" y="520" as="sourcePoint" />
            <mxPoint x="1140" y="520" as="targetPoint" />
            <Array as="points">
              <mxPoint x="983" y="335" />
            </Array>
          </mxGeometry>
        </mxCell>
        <mxCell id="xjTbjc3EWIIlP0C5Vz4T-443" value="" style="edgeStyle=orthogonalEdgeStyle;fontSize=12;html=1;endArrow=blockThin;endFill=1;rounded=0;strokeWidth=2;endSize=4;startSize=4;dashed=0;strokeColor=#4284F3;exitX=0.75;exitY=1;exitDx=0;exitDy=0;entryX=0;entryY=0.5;entryDx=0;entryDy=0;" edge="1" parent="1" source="xjTbjc3EWIIlP0C5Vz4T-429" target="xjTbjc3EWIIlP0C5Vz4T-433">
          <mxGeometry width="100" relative="1" as="geometry">
            <mxPoint x="840" y="520" as="sourcePoint" />
            <mxPoint x="940" y="520" as="targetPoint" />
            <Array as="points">
              <mxPoint x="770" y="390" />
              <mxPoint x="770" y="540" />
            </Array>
          </mxGeometry>
        </mxCell>
        <mxCell id="xjTbjc3EWIIlP0C5Vz4T-444" value="" style="edgeStyle=orthogonalEdgeStyle;fontSize=12;html=1;endArrow=blockThin;endFill=1;rounded=0;strokeWidth=2;endSize=4;startSize=4;dashed=0;strokeColor=#4284F3;exitX=0.75;exitY=1;exitDx=0;exitDy=0;entryX=0;entryY=0.5;entryDx=0;entryDy=0;" edge="1" parent="1" source="xjTbjc3EWIIlP0C5Vz4T-429" target="xjTbjc3EWIIlP0C5Vz4T-435">
          <mxGeometry width="100" relative="1" as="geometry">
            <mxPoint x="840" y="520" as="sourcePoint" />
            <mxPoint x="940" y="520" as="targetPoint" />
            <Array as="points">
              <mxPoint x="770" y="390" />
              <mxPoint x="770" y="620" />
            </Array>
          </mxGeometry>
        </mxCell>
      </root>
    </mxGraphModel>
  </diagram>
</mxfile>
